<?xml version="1.0" standalone="no"?>
<!DOCTYPE svg PUBLIC "-//W3C//DTD SVG 20010904//EN"
 "http://www.w3.org/TR/2001/REC-SVG-20010904/DTD/svg10.dtd">
<svg version="1.0" xmlns="http://www.w3.org/2000/svg"
 width="282.000000pt" height="282.000000pt" viewBox="0 0 282.000000 282.000000"
 preserveAspectRatio="xMidYMid meet">
<metadata>
Created by potrace 1.11, written by Peter Selinger 2001-2013
</metadata>
<g transform="translate(0.000000,282.000000) scale(0.100000,-0.100000)"
fill="#000000" stroke="none">
<path d="M1262 2765 c-231 -42 -442 -149 -613 -312 -429 -408 -501 -1052 -173
-1544 390 -587 1207 -712 1758 -269 500 403 594 1138 212 1655 -179 243 -433
403 -735 465 -117 24 -333 26 -449 5z m304 -168 c175 -130 332 -337 417 -552
72 -181 95 -403 62 -590 -8 -43 -12 -81 -10 -83 7 -8 65 191 80 274 19 109 19
259 0 348 -8 38 -13 72 -10 74 12 12 34 -13 78 -85 199 -331 232 -728 86
-1041 -142 -306 -414 -472 -775 -472 -462 0 -794 245 -905 668 -29 109 -36
300 -15 417 27 158 62 243 88 217 5 -5 19 -56 32 -113 50 -220 131 -378 268
-524 53 -57 146 -135 161 -135 3 0 -15 35 -39 78 -51 88 -114 247 -138 342
-38 158 -39 349 -1 492 40 153 130 327 230 443 99 116 289 284 321 285 7 0 38
-20 70 -43z"/>
<path d="M228 954 c-77 -51 -156 -135 -183 -191 -27 -56 -31 -131 -10 -194 25
-75 131 -178 242 -237 177 -93 496 -175 803 -208 203 -21 512 -14 645 14 155
34 156 41 7 41 -653 3 -1135 256 -1364 717 -28 57 -56 104 -62 104 -6 0 -41
-21 -78 -46z"/>
</g>
</svg>
